<svg width="128" height="128" viewBox="0 0 128 128" fill="none" xmlns="http://www.w3.org/2000/svg">
<path fill-rule="evenodd" clip-rule="evenodd" d="M28.3429 9.15716C25.2094 9.68174 22.7831 11.6747 21.5583 14.7304C21.4231 15.0678 21.287 15.64 21.1557 16.4227C20.9795 17.4733 20.9366 109.252 21.1118 110.419C21.3914 112.286 21.9658 113.903 22.8239 115.242C24.4325 117.751 27.06 119.146 31.1315 119.652C32.7936 119.859 94.7153 119.857 95.9555 119.65C97.1003 119.46 97.9237 119.22 98.8189 118.816C99.0846 118.696 99.3279 118.598 99.3596 118.598C99.732 118.598 101.896 116.826 102.489 116.035C102.621 115.858 102.752 115.694 102.779 115.668C103.222 115.257 104.223 113.066 104.557 111.777C104.926 110.355 105.344 106.681 105.021 107.696C104.988 107.801 104.923 107.886 104.876 107.886C104.829 107.886 104.79 107.947 104.79 108.022C104.79 108.251 104.101 109.664 103.648 110.365C102.577 112.02 101.08 113.1 99.2972 113.504C98.6564 113.649 96.321 113.658 64.4609 113.634L30.3112 113.608L29.5951 113.259C25.5014 111.258 26.2088 105.557 30.7233 104.166C32.2304 103.702 29.7112 103.735 65.6623 103.71C98.8782 103.688 99.7481 103.68 100.67 103.385C104.041 102.306 106.289 99.7997 106.858 96.4878C107.05 95.3689 107.046 17.2757 106.854 16.189C106.213 12.5701 103.536 9.9067 99.7717 9.14399C98.7831 8.94367 29.5422 8.95636 28.3429 9.15716ZM69.7252 34.5517L69.7709 42.4712L77.2697 42.4946C82.6245 42.5112 84.8036 42.5471 84.8915 42.6203C85.0649 42.764 85.0732 49.0863 84.9002 49.3202C84.7946 49.463 84.2073 49.4769 77.2785 49.4979L69.7709 49.5208L69.7252 67.7857L69.6794 86.0506H66.2462H62.813L62.7898 67.8367C62.7715 53.4049 62.743 49.6077 62.6524 49.5503C62.5897 49.5103 59.1746 49.4771 55.0636 49.4764C48.3329 49.4752 47.5833 49.4605 47.5333 49.3302C47.5026 49.2505 47.4777 47.7502 47.4777 45.9959C47.4777 44.2418 47.5026 42.7413 47.5333 42.6617C47.5833 42.5312 48.3292 42.5168 55.0331 42.5168C59.1275 42.5168 62.5426 42.4919 62.6222 42.4614C62.7527 42.4112 62.7671 41.6297 62.7671 34.5571C62.7671 30.2404 62.7952 26.6806 62.8293 26.6464C62.8635 26.6123 64.4187 26.5952 66.2855 26.6084L69.6794 26.6323L69.7252 34.5517Z" fill="black"/>
</svg>
