<svg xmlns="http://www.w3.org/2000/svg" width="128" height="128" fill-rule="evenodd" clip-rule="evenodd" image-rendering="optimizeQuality" shape-rendering="geometricPrecision" text-rendering="geometricPrecision" viewBox="-128 -128 4735 4735"><path d="M993 119h2548c176 0 320 144 320 320v2872c0 176-144 320-320 320H1156c-378 0-301 380-88 370h2448c226 0 276-251 276-251 0 527-439 477-439 477H1131c-533 0-461-449-458-596V440c0-176 144-320 320-320zm1228 650h257v593h566v257h-566v1359h-257V1619h-566v-257h566V769z"/></svg>
